<svg width="40" height="40" viewBox="0 0 40 40" fill="none" xmlns="http://www.w3.org/2000/svg">
<path d="M20 0C8.97216 0 0 8.97216 0 20C0 31.0279 8.97216 40.0001 20 40.0001C31.0279 40.0001 40.0001 31.0279 40.0001 20C40.0001 8.97216 31.0278 0 20 0ZM21.301 31.8666C20.3508 32.025 18.4601 32.4206 17.5 32.5001C16.6873 32.5674 15.9204 32.1022 15.4529 31.4344C15.2221 31.1053 15.0741 30.7255 15.0214 30.327C14.9687 29.9286 15.0129 29.5233 15.1502 29.1456L18.9307 18.7501H15C14.9966 16.5839 16.6214 14.9912 18.6995 14.38C19.6912 14.0882 21.5388 13.6889 22.5 13.7501C23.0758 13.7867 24.0796 14.148 24.5471 14.8158C24.7779 15.1449 24.9259 15.5247 24.9786 15.9232C25.0313 16.3216 24.9871 16.7269 24.8498 17.1046L21.0693 27.5001H24.9988C24.9996 29.6637 23.4354 31.5108 21.301 31.8666ZM22.5 12.5C21.1192 12.5 20 11.3806 20 10C20 8.61927 21.1192 7.5 22.5 7.5C23.8807 7.5 25 8.61927 25 10C25 11.3807 23.8808 12.5 22.5 12.5Z" fill="#29ADE3"/>
</svg>
